<svg width="48" height="48" viewBox="0 0 48 48" fill="none" xmlns="http://www.w3.org/2000/svg">
  <defs>
    <linearGradient id="g" x1="6" y1="42" x2="42" y2="6" gradientUnits="userSpaceOnUse">
      <stop stop-color="#0e7a4f"/>
      <stop offset="1" stop-color="#1aa874"/>
    </linearGradient>
  </defs>
  <rect width="48" height="48" rx="13" fill="url(#g)"/>
  <path d="M23.2 40V27.5h1.6V40h-1.6Z" fill="#f4f0e0"/>
  <path d="M24 6c2.4 3 3.6 5.7 3.6 8.2 0 2.2-1 4.2-3.6 5.6-2.6-1.4-3.6-3.4-3.6-5.6 0-2.5 1.2-5.2 3.6-8.2Z" fill="#e8b94a"/>
  <path d="M14.5 16.5c3.2 1.2 5.4 2.9 6.7 5 .9 1.5 1.1 3.2.4 4.9-2.5.6-4.5-.1-6-1.7-1.8-1.9-2.6-4.6-2.1-8.2Z" fill="#eaf3e8"/>
  <path d="M33.5 16.5c-3.2 1.2-5.4 2.9-6.7 5-.9 1.5-1.1 3.2-.4 4.9 2.5.6 4.5-.1 6-1.7 1.8-1.9 2.6-4.6 2.1-8.2Z" fill="#eaf3e8"/>
  <circle cx="24" cy="14.2" r="2.1" fill="#fbf8ec"/>
</svg>
